<?xml version="1.0" standalone="no"?><!DOCTYPE svg PUBLIC "-//W3C//DTD SVG 1.1//EN" "http://www.w3.org/Graphics/SVG/1.1/DTD/svg11.dtd">
<svg t="1713939217065" class="icon" viewBox="0 0 1024 1024" version="1.1"
    xmlns="http://www.w3.org/2000/svg" p-id="10899"
    xmlns:xlink="http://www.w3.org/1999/xlink" width="18" height="18">
    <path d="M275.2 864c0 0 128-102.4 236.8-108.8 108.8 6.4 236.8 108.8 236.8 108.8-6.4-108.8-83.2-179.2-83.2-179.2C761.6 320 505.6 0 505.6 0S256 320 358.4 684.8C358.4 684.8 275.2 761.6 275.2 864zM473.6 192l64 0c0 0 83.2 0 83.2 192L396.8 384C390.4 192 473.6 192 473.6 192zM576 793.6l-70.4-12.8-70.4 12.8c0 0-44.8 19.2-38.4 44.8 6.4 25.6 57.6 153.6 102.4 179.2 44.8-19.2 96-147.2 102.4-179.2C620.8 812.8 576 793.6 576 793.6z" p-id="10900" fill="#111111"></path>
</svg>