<svg t="1718073295864" class="icon" viewBox="0 0 1024 1024" version="1.1"
    xmlns="http://www.w3.org/2000/svg" p-id="15244" width="18" height="18">
    <path d="M892.032 512h-56.064a8 8 0 0 0-7.936 8v308.032H195.968V195.968h308.48a8 8 0 0 0 8.064-7.936v-56.064a8 8 0 0 0-8-7.936H192c-37.568 0-68.032 30.4-68.032 67.968v640c0 37.568 30.464 68.032 68.032 68.032h640c37.568 0 68.032-30.464 68.032-68.032V520A8 8 0 0 0 891.968 512zM359.04 508.8l-19.072 130.88a40 40 0 0 0 45.312 45.376l130.88-19.2a40.256 40.256 0 0 0 22.464-11.264l356.736-356.736c24.96-25.024 24.96-65.536 0-90.496l-77.76-77.824a64.064 64.064 0 0 0-90.496 0L370.368 486.4a40.32 40.32 0 0 0-11.264 22.464z m62.144 17.216L772.48 174.72l77.76 77.824-351.104 351.104-91.072 13.312 13.248-91.008z" fill="#ffffff" p-id="15245"></path>
</svg>