<svg t="1709204055454" class="icon" viewBox="0 0 1024 1024" version="1.1" xmlns="http://www.w3.org/2000/svg" p-id="2322" width="200" height="200"><path d="M909.8 304.6c-5.4-10.5-16.3-17.8-28.9-17.8-17.8 0-32.2 14.4-32.2 32.1 0 6 1.7 11.7 4.6 16.5l-0.1 0.1c26.9 52.4 42.1 111.8 42.1 174.7 0 211.6-171.6 383.2-383.2 383.2S128.8 721.8 128.8 510.2 300.4 127.1 512 127.1c62.5 0 121.5 15 173.6 41.5l0.2-0.4c4.6 2.6 10 4.1 15.7 4.1 17.8 0 32.2-14.4 32.2-32.1 0-13.1-7.9-24.4-19.3-29.4C653.6 79.9 584.9 62.5 512 62.5 264.7 62.5 64.2 263 64.2 510.2S264.7 957.9 512 957.9s447.7-200.4 447.7-447.7c0-74.1-18-144-49.9-205.6z" fill="#4D4D4D" p-id="2323"></path><path d="M771.7 218.7a32.2 32.1 0 1 0 64.4 0 32.2 32.1 0 1 0-64.4 0Z" fill="#4D4D4D" p-id="2324"></path><path d="M319.3 512m-45.1 0a45.1 45.1 0 1 0 90.2 0 45.1 45.1 0 1 0-90.2 0Z" fill="#4D4D4D" p-id="2325"></path><path d="M511.3 512m-45.1 0a45.1 45.1 0 1 0 90.2 0 45.1 45.1 0 1 0-90.2 0Z" fill="#4D4D4D" p-id="2326"></path><path d="M703.2 512m-45.1 0a45.1 45.1 0 1 0 90.2 0 45.1 45.1 0 1 0-90.2 0Z" fill="#4D4D4D" p-id="2327"></path></svg>