<svg t="1709203978640" class="icon" viewBox="0 0 1024 1024" version="1.1"
    xmlns="http://www.w3.org/2000/svg" p-id="2034" width="32" height="32">
    <path d="M747.7 288.2c0-17.6-14.4-32.1-32.1-32.1H306.4c-17.6 0-32.1 14.4-32.1 32.1 0 17.6 14.4 32.1 32.1 32.1h409.2c17.7 0 32.1-14.5 32.1-32.1zM306.4 448c-17.6 0-32.1 14.4-32.1 32.1 0 17.6 14.4 32.1 32.1 32.1h191.1c17.7 0 32.2-14.4 32.1-32.1 0-17.6-14.4-32.1-32.1-32.1H306.4zM766.6 776.8c-2.1-2.1-4.4-3.9-6.9-5.2 18.1-25.8 28.7-57.1 28.7-90.9 0-88.2-72.4-159.6-161.7-159.6S465 592.5 465 680.7s72.4 159.6 161.7 159.6c32.7 0 63.2-9.6 88.7-26.1 1.5 2.9 3.4 5.6 5.8 8l83.3 83.3c12.5 12.5 32.9 12.5 45.4 0s12.5-32.9 0-45.4l-83.3-83.3z m-139.9 0.6c-54.1 0-98-43.3-98-96.7s43.9-96.7 98-96.7 98 43.3 98 96.7c0 53.4-43.8 96.7-98 96.7z" fill="#fdfdfd" p-id="2035"></path>
    <path d="M577.6 895.4H221.2c-35.2 0-64-28.8-64-64V192.8c0-35.2 28.8-64 64-64h547.3c35.2 0 64 28.8 64 64v318.4h0.3v0.1c0 17.7 14.4 32.1 32.2 32.1s32.2-14.4 32.2-32.1c0-1.2-0.1-2.3-0.2-3.5v-316c0-70.4-27.6-128-98-128H225c-70.4 0-128 57.6-128 128v639.8c0 70.4 57.6 128 128 128h352.2c17.8 0 32.2-14.4 32.2-32.1 0-17.6-14.2-31.9-31.8-32.1z" fill="#fdfdfd" p-id="2036"></path>
    <path d="M832.7 639.3a32.2 32.1 0 1 0 64.4 0 32.2 32.1 0 1 0-64.4 0Z" fill="#fdfdfd" p-id="2037"></path>
</svg>