<svg t="1709196370292" class="icon" viewBox="0 0 1024 1024" version="1.1"
    xmlns="http://www.w3.org/2000/svg" p-id="1887" width="18" height="18">
    <path d="M910.8 303.6c-5.4-10.5-16.3-17.8-28.9-17.8-17.8 0-32.2 14.4-32.2 32.1 0 6 1.7 11.7 4.6 16.5l-0.1 0.1c26.9 52.4 42.1 111.8 42.1 174.7 0 211.6-171.6 383.2-383.2 383.2S129.8 720.8 129.8 509.2 301.4 126.1 513 126.1c62.5 0 121.5 15 173.6 41.5l0.2-0.4c4.6 2.6 10 4.1 15.7 4.1 17.8 0 32.2-14.4 32.2-32.1 0-13.1-7.9-24.4-19.3-29.4C654.6 78.9 585.9 61.5 513 61.5 265.7 61.5 65.3 262 65.3 509.2S265.7 956.9 513 956.9s447.7-200.4 447.7-447.7c0-74.1-18-144-49.9-205.6z" fill="#fdfdfd" p-id="1888"></path>
    <path d="M385.4 352.2V672c0 17.5 14.3 31.9 31.9 31.9 17.6 0 32-14.4 31.9-31.9V352.2c0-17.5-14.3-31.9-31.9-31.9-17.5 0-31.9 14.3-31.9 31.9zM578.9 352.2V672c0 17.5 14.3 31.9 31.9 31.9 17.5 0 31.9-14.4 31.9-31.9V352.2c0-17.5-14.3-31.9-31.9-31.9-17.5 0-31.9 14.3-31.9 31.9z" fill="#fdfdfd" p-id="1889"></path>
    <path d="M772.7 217.7a32.2 32.1 0 1 0 64.4 0 32.2 32.1 0 1 0-64.4 0Z" fill="#fdfdfd" p-id="1890"></path>
</svg>