<svg t="1703209268008" class="icon" viewBox="0 0 1024 1024" version="1.1" xmlns="http://www.w3.org/2000/svg" p-id="8110" width="18" height="18"><path d="M512 960C264.533333 960 64 759.466667 64 512S264.533333 64 512 64s448 200.533333 448 448-200.533333 448-448 448z m0-853.333333C288 106.666667 106.666667 288 106.666667 512s181.333333 405.333333 405.333333 405.333333 405.333333-181.333333 405.333333-405.333333S736 106.666667 512 106.666667z" fill="#333333" p-id="8111"></path><path d="M512 768c-119.466667 0-166.4-93.866667-168.533333-98.133333-4.266667-10.666667 0-23.466667 8.533333-27.733334 10.666667-4.266667 23.466667 0 27.733333 8.533334 4.266667 4.266667 40.533333 74.666667 132.266667 74.666666 91.733333 0 130.133333-72.533333 130.133333-72.533333 4.266667-10.666667 17.066667-14.933333 27.733334-8.533333 10.666667 4.266667 14.933333 17.066667 8.533333 27.733333 0 2.133333-46.933333 96-166.4 96zM661.333333 490.666667c-12.8 0-21.333333-8.533333-21.333333-21.333334v-85.333333c0-12.8 8.533333-21.333333 21.333333-21.333333s21.333333 8.533333 21.333334 21.333333v85.333333c0 12.8-8.533333 21.333333-21.333334 21.333334zM362.666667 490.666667c-12.8 0-21.333333-8.533333-21.333334-21.333334v-85.333333c0-12.8 8.533333-21.333333 21.333334-21.333333s21.333333 8.533333 21.333333 21.333333v85.333333c0 12.8-8.533333 21.333333-21.333333 21.333334z" fill="#333" p-id="8112"></path></svg>