<svg t="1703209365123" class="icon" viewBox="0 0 1024 1024" version="1.1" xmlns="http://www.w3.org/2000/svg" p-id="8250" width="18" height="18"><path d="M746.666667 896c-6.4 0-10.666667-2.133333-14.933334-6.4L674.133333 832H448c-12.8 0-21.333333-8.533333-21.333333-21.333333v-149.333334c0-12.8 8.533333-21.333333 21.333333-21.333333h320v-170.666667c0-12.8 8.533333-21.333333 21.333333-21.333333h128c12.8 0 21.333333 8.533333 21.333334 21.333333v341.333334c0 12.8-8.533333 21.333333-21.333334 21.333333h-98.133333l-57.6 57.6c-4.266667 4.266667-8.533333 6.4-14.933333 6.4z m-277.333334-106.666667h213.333334c6.4 0 10.666667 2.133333 14.933333 6.4l49.066667 49.066667 49.066666-49.066667c4.266667-4.266667 8.533333-6.4 14.933334-6.4h85.333333V490.666667h-85.333333v170.666666c0 12.8-8.533333 21.333333-21.333334 21.333334H469.333333v106.666666z" fill="#ffffff" p-id="8251"></path><path d="M298.666667 768c-6.4 0-10.666667-2.133333-14.933334-6.4L204.8 682.666667H106.666667c-12.8 0-21.333333-8.533333-21.333334-21.333334V149.333333c0-12.8 8.533333-21.333333 21.333334-21.333333h682.666666c12.8 0 21.333333 8.533333 21.333334 21.333333v512c0 12.8-8.533333 21.333333-21.333334 21.333334H392.533333l-78.933333 78.933333c-4.266667 4.266667-8.533333 6.4-14.933333 6.4z m-170.666667-128h85.333333c6.4 0 10.666667 2.133333 14.933334 6.4l70.4 70.4 70.4-70.4c4.266667-4.266667 8.533333-6.4 14.933333-6.4h384V170.666667H128v469.333333z" fill="#ffffff" p-id="8252"></path><path d="M405.333333 512h-128c-12.8 0-21.333333-8.533333-21.333333-21.333333s8.533333-21.333333 21.333333-21.333334h128c12.8 0 21.333333 8.533333 21.333334 21.333334s-8.533333 21.333333-21.333334 21.333333zM533.333333 341.333333H277.333333c-12.8 0-21.333333-8.533333-21.333333-21.333333s8.533333-21.333333 21.333333-21.333333h256c12.8 0 21.333333 8.533333 21.333334 21.333333s-8.533333 21.333333-21.333334 21.333333z" fill="#ffffff" p-id="8253"></path></svg>