<svg t="1703209233389" class="icon" viewBox="0 0 1024 1024" version="1.1" xmlns="http://www.w3.org/2000/svg" p-id="7971" width="18" height="18"><path d="M512 896h-6.4C356.266667 853.333333 64 633.6 64 384 64 243.2 179.2 128 320 128c40.533333 0 81.066667 10.666667 117.333333 27.733333 8.533333 4.266667 12.8 12.8 10.666667 23.466667l-19.2 108.8 179.2 100.266667c6.4 4.266667 10.666667 8.533333 10.666667 17.066666s-2.133333 12.8-6.4 19.2l-136.533334 117.333334 55.466667 91.733333c6.4 10.666667 2.133333 23.466667-6.4 29.866667-10.666667 6.4-23.466667 2.133333-29.866667-6.4l-64-106.666667c-6.4-8.533333-4.266667-21.333333 4.266667-27.733333l125.866667-108.8-164.266667-91.733334c-8.533333-4.266667-12.8-12.8-10.666667-21.333333l19.2-106.666667C377.6 177.066667 349.866667 170.666667 320 170.666667 202.666667 170.666667 106.666667 266.666667 106.666667 384c0 215.466667 258.133333 422.4 405.333333 469.333333 147.2-44.8 405.333333-251.733333 405.333333-469.333333 0-117.333333-96-213.333333-213.333333-213.333333-34.133333 0-66.133333 8.533333-96 23.466666-10.666667 6.4-23.466667 2.133333-27.733333-8.533333-6.4-10.666667-2.133333-23.466667 8.533333-27.733333C622.933333 136.533333 663.466667 128 704 128c140.8 0 256 115.2 256 256 0 249.6-292.266667 469.333333-441.6 512H512z" fill="#fff" p-id="7972"></path></svg>